<svg xmlns="http://www.w3.org/2000/svg" viewBox="0 0 1200 680" width="100%" height="100%">
  <defs>
    <linearGradient id="bg5" x1="0%" y1="0%" x2="100%" y2="100%">
      <stop offset="0%" stop-color="#0B132B"/>
      <stop offset="100%" stop-color="#1C2541"/>
    </linearGradient>
    <linearGradient id="cardBg5" x1="0%" y1="0%" x2="0%" y2="100%">
      <stop offset="0%" stop-color="#111D38"/>
      <stop offset="100%" stop-color="#0E172C"/>
    </linearGradient>
  </defs>

  <rect width="1200" height="680" fill="url(#bg5)"/>

  <!-- Window Chrome Header -->
  <rect x="24" y="24" width="1152" height="632" rx="12" fill="url(#cardBg5)" stroke="#233554" stroke-width="1.5"/>
  <rect x="24" y="24" width="1152" height="48" rx="12" fill="#0A1124"/>
  <circle cx="50" cy="48" r="6" fill="#EF4444"/>
  <circle cx="70" cy="48" r="6" fill="#F59E0B"/>
  <circle cx="90" cy="48" r="6" fill="#10B981"/>
  <text x="115" y="53" fill="#94A3B8" font-family="-apple-system, BlinkMacSystemFont, 'Segoe UI', Roboto, sans-serif" font-size="13" font-weight="500">Wealthyneers — Report 5: Institutional Buying &amp; Selling Rankings</text>
  <rect x="990" y="38" width="166" height="22" rx="4" fill="#1E293B"/>
  <text x="1002" y="53" fill="#38BDF8" font-family="-apple-system, BlinkMacSystemFont, 'Segoe UI', Roboto, sans-serif" font-size="11" font-weight="600">DEMO PREVIEW</text>

  <!-- Top Filter Bar -->
  <rect x="48" y="90" width="1104" height="54" rx="8" fill="#162444" stroke="#233554" stroke-width="1"/>
  <text x="68" y="122" fill="#94A3B8" font-family="sans-serif" font-size="12" font-weight="600">RANKING ENGINE:</text>
  <rect x="190" y="102" width="220" height="30" rx="6" fill="#065F46" stroke="#10B981" stroke-width="1"/>
  <text x="204" y="122" fill="#FFFFFF" font-family="sans-serif" font-size="12" font-weight="700">🏆 Top Net Buying Leaders</text>

  <text x="440" y="122" fill="#94A3B8" font-family="sans-serif" font-size="12" font-weight="600">MIN. AMCs:</text>
  <rect x="525" y="102" width="140" height="30" rx="6" fill="#0A1124" stroke="#233554" stroke-width="1"/>
  <text x="540" y="122" fill="#CBD5E1" font-family="sans-serif" font-size="12">≥ 5 AMCs Active</text>

  <text x="695" y="122" fill="#94A3B8" font-family="sans-serif" font-size="12" font-weight="600">SECTOR:</text>
  <rect x="760" y="102" width="160" height="30" rx="6" fill="#0A1124" stroke="#233554" stroke-width="1"/>
  <text x="772" y="122" fill="#CBD5E1" font-family="sans-serif" font-size="12">All Sectors</text>

  <rect x="990" y="102" width="142" height="30" rx="6" fill="#0284C7"/>
  <text x="1016" y="122" fill="#FFFFFF" font-family="sans-serif" font-size="12" font-weight="600">Rank Universe</text>

  <!-- Rankings Leaderboard Table -->
  <rect x="48" y="160" width="1104" height="476" rx="8" fill="#162444" stroke="#233554" stroke-width="1"/>
  <rect x="48" y="160" width="1104" height="38" fill="#0E172C"/>
  <text x="68" y="184" fill="#94A3B8" font-family="sans-serif" font-size="11" font-weight="700">RANK</text>
  <text x="130" y="184" fill="#94A3B8" font-family="sans-serif" font-size="11" font-weight="700">SECURITY NAME</text>
  <text x="380" y="184" fill="#94A3B8" font-family="sans-serif" font-size="11" font-weight="700">SECTOR</text>
  <text x="540" y="184" fill="#94A3B8" font-family="sans-serif" font-size="11" font-weight="700">BUYING AMCs</text>
  <text x="680" y="184" fill="#94A3B8" font-family="sans-serif" font-size="11" font-weight="700">SELLING AMCs</text>
  <text x="820" y="184" fill="#94A3B8" font-family="sans-serif" font-size="11" font-weight="700">NET BUY SCORE</text>
  <text x="970" y="184" fill="#94A3B8" font-family="sans-serif" font-size="11" font-weight="700">CONVICTION BREADTH</text>

  <!-- Rank 1 -->
  <g transform="translate(0, 206)">
    <rect x="68" y="8" width="36" height="24" rx="6" fill="#D97706"/>
    <text x="78" y="24" fill="#FFFFFF" font-family="sans-serif" font-size="12" font-weight="700">#1</text>
    <text x="130" y="24" fill="#F8FAFC" font-family="sans-serif" font-size="13" font-weight="600">Apex Global Technologies Ltd.</text>
    <text x="380" y="24" fill="#94A3B8" font-family="sans-serif" font-size="12">IT - Software</text>
    <text x="540" y="24" fill="#10B981" font-family="sans-serif" font-size="13" font-weight="700">14 AMCs</text>
    <text x="680" y="24" fill="#EF4444" font-family="sans-serif" font-size="13" font-weight="700">1 AMC</text>
    <text x="820" y="24" fill="#38BDF8" font-family="sans-serif" font-size="14" font-weight="800">+13 Score</text>
    <rect x="970" y="8" width="150" height="24" rx="12" fill="#065F46"/>
    <text x="984" y="24" fill="#34D399" font-family="sans-serif" font-size="11" font-weight="700">🔥 93% Unanimous</text>
  </g>
  <line x1="48" y1="250" x2="1152" y2="250" stroke="#233554" stroke-width="0.75"/>

  <!-- Rank 2 -->
  <g transform="translate(0, 258)">
    <rect x="68" y="8" width="36" height="24" rx="6" fill="#475569"/>
    <text x="78" y="24" fill="#FFFFFF" font-family="sans-serif" font-size="12" font-weight="700">#2</text>
    <text x="130" y="24" fill="#F8FAFC" font-family="sans-serif" font-size="13" font-weight="600">Zenith Industrial Engineering</text>
    <text x="380" y="24" fill="#94A3B8" font-family="sans-serif" font-size="12">Capital Goods</text>
    <text x="540" y="24" fill="#10B981" font-family="sans-serif" font-size="13" font-weight="700">11 AMCs</text>
    <text x="680" y="24" fill="#94A3B8" font-family="sans-serif" font-size="13" font-weight="700">0 AMCs</text>
    <text x="820" y="24" fill="#38BDF8" font-family="sans-serif" font-size="14" font-weight="800">+11 Score</text>
    <rect x="970" y="8" width="150" height="24" rx="12" fill="#065F46"/>
    <text x="986" y="24" fill="#34D399" font-family="sans-serif" font-size="11" font-weight="700">🟢 Zero Selling</text>
  </g>
  <line x1="48" y1="302" x2="1152" y2="302" stroke="#233554" stroke-width="0.75"/>

  <!-- Rank 3 -->
  <g transform="translate(0, 310)">
    <rect x="68" y="8" width="36" height="24" rx="6" fill="#78350F"/>
    <text x="78" y="24" fill="#FFFFFF" font-family="sans-serif" font-size="12" font-weight="700">#3</text>
    <text x="130" y="24" fill="#F8FAFC" font-family="sans-serif" font-size="13" font-weight="600">Orion Logistics &amp; Infra</text>
    <text x="380" y="24" fill="#94A3B8" font-family="sans-serif" font-size="12">Logistics</text>
    <text x="540" y="24" fill="#10B981" font-family="sans-serif" font-size="13" font-weight="700">10 AMCs</text>
    <text x="680" y="24" fill="#EF4444" font-family="sans-serif" font-size="13" font-weight="700">1 AMC</text>
    <text x="820" y="24" fill="#38BDF8" font-family="sans-serif" font-size="14" font-weight="800">+9 Score</text>
    <rect x="970" y="8" width="150" height="24" rx="12" fill="#065F46"/>
    <text x="985" y="24" fill="#34D399" font-family="sans-serif" font-size="11" font-weight="700">🟢 High Consensus</text>
  </g>
  <line x1="48" y1="354" x2="1152" y2="354" stroke="#233554" stroke-width="0.75"/>

  <!-- Rank 4 -->
  <g transform="translate(0, 362)">
    <rect x="68" y="8" width="36" height="24" rx="6" fill="#1E293B"/>
    <text x="78" y="24" fill="#94A3B8" font-family="sans-serif" font-size="12" font-weight="700">#4</text>
    <text x="130" y="24" fill="#F8FAFC" font-family="sans-serif" font-size="13" font-weight="600">Beacon Pharmaceuticals</text>
    <text x="380" y="24" fill="#94A3B8" font-family="sans-serif" font-size="12">Healthcare</text>
    <text x="540" y="24" fill="#10B981" font-family="sans-serif" font-size="13" font-weight="700">8 AMCs</text>
    <text x="680" y="24" fill="#EF4444" font-family="sans-serif" font-size="13" font-weight="700">2 AMCs</text>
    <text x="820" y="24" fill="#38BDF8" font-family="sans-serif" font-size="14" font-weight="800">+6 Score</text>
    <rect x="970" y="8" width="150" height="24" rx="12" fill="#065F46"/>
    <text x="990" y="24" fill="#34D399" font-family="sans-serif" font-size="11" font-weight="700">🟢 Broad Inflow</text>
  </g>
  <line x1="48" y1="406" x2="1152" y2="406" stroke="#233554" stroke-width="0.75"/>

  <!-- Rank 5 -->
  <g transform="translate(0, 414)">
    <rect x="68" y="8" width="36" height="24" rx="6" fill="#1E293B"/>
    <text x="78" y="24" fill="#94A3B8" font-family="sans-serif" font-size="12" font-weight="700">#5</text>
    <text x="130" y="24" fill="#F8FAFC" font-family="sans-serif" font-size="13" font-weight="600">Titanium Metal Works</text>
    <text x="380" y="24" fill="#94A3B8" font-family="sans-serif" font-size="12">Metals &amp; Mining</text>
    <text x="540" y="24" fill="#10B981" font-family="sans-serif" font-size="13" font-weight="700">7 AMCs</text>
    <text x="680" y="24" fill="#EF4444" font-family="sans-serif" font-size="13" font-weight="700">2 AMCs</text>
    <text x="820" y="24" fill="#38BDF8" font-family="sans-serif" font-size="14" font-weight="800">+5 Score</text>
    <rect x="970" y="8" width="150" height="24" rx="12" fill="#065F46"/>
    <text x="990" y="24" fill="#34D399" font-family="sans-serif" font-size="11" font-weight="700">🟢 Steady Add</text>
  </g>
  <line x1="48" y1="458" x2="1152" y2="458" stroke="#233554" stroke-width="0.75"/>

  <!-- Rank 6 -->
  <g transform="translate(0, 466)">
    <rect x="68" y="8" width="36" height="24" rx="6" fill="#1E293B"/>
    <text x="78" y="24" fill="#94A3B8" font-family="sans-serif" font-size="12" font-weight="700">#6</text>
    <text x="130" y="24" fill="#F8FAFC" font-family="sans-serif" font-size="13" font-weight="600">Crestview Consumer Care</text>
    <text x="380" y="24" fill="#94A3B8" font-family="sans-serif" font-size="12">FMCG</text>
    <text x="540" y="24" fill="#10B981" font-family="sans-serif" font-size="13" font-weight="700">6 AMCs</text>
    <text x="680" y="24" fill="#EF4444" font-family="sans-serif" font-size="13" font-weight="700">2 AMCs</text>
    <text x="820" y="24" fill="#38BDF8" font-family="sans-serif" font-size="14" font-weight="800">+4 Score</text>
    <rect x="970" y="8" width="150" height="24" rx="12" fill="#065F46"/>
    <text x="990" y="24" fill="#34D399" font-family="sans-serif" font-size="11" font-weight="700">🟢 Positive Bias</text>
  </g>
  <line x1="48" y1="510" x2="1152" y2="510" stroke="#233554" stroke-width="0.75"/>

  <!-- Rank 7 -->
  <g transform="translate(0, 518)">
    <rect x="68" y="8" width="36" height="24" rx="6" fill="#1E293B"/>
    <text x="78" y="24" fill="#94A3B8" font-family="sans-serif" font-size="12" font-weight="700">#7</text>
    <text x="130" y="24" fill="#F8FAFC" font-family="sans-serif" font-size="13" font-weight="600">Solaris Clean Energy</text>
    <text x="380" y="24" fill="#94A3B8" font-family="sans-serif" font-size="12">Power &amp; Renewables</text>
    <text x="540" y="24" fill="#10B981" font-family="sans-serif" font-size="13" font-weight="700">5 AMCs</text>
    <text x="680" y="24" fill="#EF4444" font-family="sans-serif" font-size="13" font-weight="700">4 AMCs</text>
    <text x="820" y="24" fill="#38BDF8" font-family="sans-serif" font-size="14" font-weight="800">+1 Score</text>
    <rect x="970" y="8" width="150" height="24" rx="12" fill="#78350F"/>
    <text x="982" y="24" fill="#FDE68A" font-family="sans-serif" font-size="11" font-weight="700">🟡 Divergent Debate</text>
  </g>
</svg>
